<svg width="64" height="45" viewBox="0 0 64 45" fill="none" xmlns="http://www.w3.org/2000/svg">
<path d="M62 26.2438C62.0069 29.9013 60.835 33.4636 58.6579 36.4026C56.4808 39.3416 53.4146 41.5007 49.9138 42.5598L49.763 42.6029H13.9497C6.52423 42.3515 2 35.9314 2 29.0876C2.05223 25.7641 3.32033 22.5748 5.56455 20.1229C7.80877 17.6709 10.8736 16.1261 14.1795 15.7806C16.535 7.72316 22.7109 2.6316 31.0054 2.04274C33.9767 1.82784 36.9504 2.42623 39.6073 3.77366C42.2642 5.12109 44.504 7.16669 46.0861 9.69085C55.4219 9.69085 62 16.8506 62 26.2438Z" stroke="#151515" stroke-width="3.63" stroke-miterlimit="10"/>
<path d="M18.8618 36.6064V20.9871C18.5094 20.987 18.1606 21.0569 17.8355 21.1926C17.5104 21.3283 17.2154 21.5271 16.9676 21.7775C16.7198 22.028 16.5242 22.3251 16.392 22.6517C16.2598 22.9782 16.1937 23.3278 16.1975 23.6801V37.0948C17.0664 36.9081 17.9282 36.7429 18.8618 36.6064Z" fill="#151515"/>
<path d="M24.6714 35.8883V13.777C23.8166 13.8335 23.0153 14.213 22.4299 14.8384C21.8445 15.4638 21.5188 16.2884 21.5188 17.1451V36.19C22.5673 36.0607 23.6157 35.9458 24.6714 35.8883Z" fill="#151515"/>
<path d="M31.1131 35.5867H32.4488V6.10736C31.3454 6.10736 30.287 6.5452 29.5061 7.32477C28.7252 8.10434 28.2855 9.16192 28.2836 10.2653V35.6441C29.2244 35.6082 30.1364 35.5867 31.1131 35.5867Z" fill="#151515"/>
<path d="M39.9892 36.1037V13.7698C39.5447 13.7679 39.1043 13.8538 38.6931 14.0226C38.282 14.1914 37.9082 14.4397 37.5933 14.7533C37.2783 15.0669 37.0284 15.4396 36.8579 15.8501C36.6874 16.2605 36.5996 16.7006 36.5996 17.145V35.8165C37.7486 35.8883 38.8761 35.9745 39.9892 36.1037Z" fill="#151515"/>
<path d="M46.0359 37.0948V20.9871C45.683 20.9861 45.3334 21.0553 45.0074 21.1905C44.6814 21.3258 44.3856 21.5244 44.1371 21.775C43.8885 22.0255 43.6922 22.323 43.5596 22.65C43.4269 22.977 43.3606 23.3272 43.3644 23.6801V36.6065C44.2693 36.7429 45.1597 36.9081 46.0359 37.0948Z" fill="#151515"/>
<path d="M31.1131 37.4682C21.9641 37.4682 13.6553 39.0984 7.49371 41.777H54.7253C48.5637 39.0984 40.2549 37.4682 31.1131 37.4682Z" fill="#151515"/>
</svg>
